<?xml version="1.0" encoding="UTF-8" standalone="no"?>
<!DOCTYPE svg PUBLIC "-//W3C//DTD SVG 1.1//EN"
 "http://www.w3.org/Graphics/SVG/1.1/DTD/svg11.dtd">
<!-- Generated by graphviz version 2.28.0 (20120228.1928)
 -->
<!-- Title: G Pages: 1 -->
<svg width="174pt" height="186pt"
 viewBox="0.00 0.00 174.00 186.00" xmlns="http://www.w3.org/2000/svg" xmlns:xlink="http://www.w3.org/1999/xlink">
<g id="graph1" class="graph" transform="scale(1 1) rotate(0) translate(4 182)">
<title>G</title>
<polygon fill="white" stroke="white" points="-4,5 -4,-182 171,-182 171,5 -4,5"/>
<g id="graph2" class="cluster"><title>cluster_US</title>
<polyline fill="none" stroke="gray" points="20,-8 146,-8 "/>
<path fill="none" stroke="gray" d="M146,-8C152,-8 158,-14 158,-20"/>
<polyline fill="none" stroke="gray" points="158,-20 158,-158 "/>
<path fill="none" stroke="gray" d="M158,-158C158,-164 152,-170 146,-170"/>
<polyline fill="none" stroke="gray" points="146,-170 20,-170 "/>
<path fill="none" stroke="gray" d="M20,-170C14,-170 8,-164 8,-158"/>
<polyline fill="none" stroke="gray" points="8,-158 8,-20 "/>
<path fill="none" stroke="gray" d="M8,-20C8,-14 14,-8 20,-8"/>
<text text-anchor="middle" x="83" y="-157.2" font-family="Times,serif" font-size="11.00" fill="gray">US</text>
</g>
<g id="graph3" class="cluster"><title>cluster_US\OpenSSO</title>
<polyline fill="none" stroke="gray" points="28,-16 138,-16 "/>
<path fill="none" stroke="gray" d="M138,-16C144,-16 150,-22 150,-28"/>
<polyline fill="none" stroke="gray" points="150,-28 150,-130 "/>
<path fill="none" stroke="gray" d="M150,-130C150,-136 144,-142 138,-142"/>
<polyline fill="none" stroke="gray" points="138,-142 28,-142 "/>
<path fill="none" stroke="gray" d="M28,-142C22,-142 16,-136 16,-130"/>
<polyline fill="none" stroke="gray" points="16,-130 16,-28 "/>
<path fill="none" stroke="gray" d="M16,-28C16,-22 22,-16 28,-16"/>
<text text-anchor="middle" x="83" y="-129.2" font-family="Times,serif" font-size="11.00" fill="gray">OpenSSO</text>
</g>
<!-- \\US\\OpenSSO\\InternalHandler -->
<g id="node3" class="node"><title>\\US\\OpenSSO\\InternalHandler</title>
<a xlink:href="InternalHandler.html" xlink:title="InternalHandler" target="_parent">
<polygon fill="none" stroke="black" points="142,-114 24,-114 24,-78 142,-78 142,-114"/>
<text text-anchor="middle" x="83" y="-93.2" font-family="Courier,monospace" font-size="11.00">InternalHandler</text>
</a>
</g>
<!-- \\US\\OpenSSO\\User -->
<g id="node4" class="node"><title>\\US\\OpenSSO\\User</title>
<a xlink:href="User.html" xlink:title="User" target="_parent">
<polygon fill="none" stroke="black" points="110,-60 56,-60 56,-24 110,-24 110,-60"/>
<text text-anchor="middle" x="83" y="-39.2" font-family="Courier,monospace" font-size="11.00">User</text>
</a>
</g>
</g>
</svg>
